<svg xmlns="http://www.w3.org/2000/svg" xmlns:xlink="http://www.w3.org/1999/xlink" width="100" zoomAndPan="magnify" viewBox="0 0 75 74.999997" height="100" preserveAspectRatio="xMidYMid meet" version="1.0"><defs><clipPath id="74bae940ae"><path d="M 13.617188 4.671875 L 61.617188 4.671875 L 61.617188 70.671875 L 13.617188 70.671875 Z M 13.617188 4.671875 " clip-rule="nonzero"/></clipPath><clipPath id="83d13632ba"><path d="M 45 4.671875 L 61.617188 4.671875 L 61.617188 22 L 45 22 Z M 45 4.671875 " clip-rule="nonzero"/></clipPath></defs><g clip-path="url(#74bae940ae)"><path fill="#16864c" d="M 45.046875 4.6875 L 18.058594 4.6875 C 15.667969 4.6875 13.617188 6.738281 13.617188 9.132812 L 13.617188 66.210938 C 13.617188 68.601562 15.667969 70.652344 18.058594 70.652344 L 57.175781 70.652344 C 59.566406 70.652344 61.617188 68.601562 61.617188 66.210938 L 61.617188 21.265625 Z M 45.046875 4.6875 " fill-opacity="1" fill-rule="nonzero"/></g><g clip-path="url(#83d13632ba)"><path fill="#221f1f" d="M 45.046875 4.6875 L 45.046875 21.265625 L 61.445312 21.265625 " fill-opacity="0.35" fill-rule="nonzero"/></g><path fill="#ffffff" d="M 50 35.105469 L 50 56.296875 C 50 56.46875 50 56.46875 50 56.640625 C 49.832031 57.664062 48.976562 58.519531 47.953125 58.519531 L 26.597656 58.519531 C 26.257812 58.519531 25.746094 58.347656 25.574219 58.179688 C 25.402344 58.179688 25.402344 58.007812 25.230469 58.007812 C 24.71875 57.664062 24.550781 56.980469 24.550781 56.46875 L 24.550781 35.105469 C 24.550781 33.910156 25.574219 33.054688 26.597656 33.054688 L 47.78125 33.054688 C 48.804688 33.054688 49.832031 33.910156 49.832031 34.9375 C 50 34.9375 50 34.9375 50 35.105469 Z M 50 35.105469 " fill-opacity="1" fill-rule="nonzero"/><path fill="#16864c" d="M 40.09375 52.710938 C 40.09375 52.710938 37.703125 48.09375 37.191406 47.242188 C 36.847656 48.09375 36.335938 48.777344 35.824219 49.804688 L 34.285156 52.539062 L 31.039062 52.539062 L 35.480469 45.53125 L 31.382812 38.523438 L 34.796875 38.523438 C 34.796875 38.523438 37.019531 43.140625 37.53125 43.824219 C 37.871094 42.96875 40.433594 38.523438 40.433594 38.523438 L 43.511719 38.523438 L 39.070312 45.703125 L 43.339844 52.710938 Z M 40.09375 52.710938 " fill-opacity="1" fill-rule="nonzero"/></svg>